<svg width="449" height="449" fill="none" xmlns="http://www.w3.org/2000/svg"><path fill="#E84D37" d="M0 0h449v449H0z"/><path d="M224.861 72.8777c12.203-.0029 24.192 3.1344 34.767 9.0976 10.575 5.9632 19.364 14.543 25.486 24.8797 6.123 10.337 9.363 22.067 9.397 34.017.035 11.949-3.138 23.697-9.201 34.068 4.206.588 8.161 2.311 11.423 4.976 3.261 2.666 5.7 6.168 7.044 10.114 1.344 3.947 1.538 8.181.562 12.23-.976 4.049-3.084 7.751-6.088 10.693-3.004 2.941-6.785 5.005-10.919 5.961-4.135.956-8.46.765-12.49-.551-4.03-1.315-7.607-3.704-10.328-6.898-2.722-3.193-4.482-7.066-5.083-11.185-.862.483-1.748.941-2.634 1.399-1.232 7.425-5.121 14.178-10.972 19.052-5.851 4.874-13.283 7.55-20.964 7.55-7.682 0-15.113-2.676-20.964-7.55-5.851-4.874-9.741-11.627-10.972-19.052-.887-.458-1.773-.916-2.635-1.399-.599 4.122-2.36 7.999-5.084 11.196-2.724 3.197-6.304 5.586-10.339 6.901-4.034 1.315-8.363 1.503-12.5.542-4.137-.96-7.919-3.03-10.921-5.979-3.003-2.948-5.106-6.657-6.075-10.711-.969-4.054-.765-8.292.589-12.239 1.354-3.947 3.805-7.446 7.077-10.104 3.273-2.659 7.237-4.371 11.448-4.946-6.059-10.365-9.232-22.107-9.201-34.05.031-11.943 3.265-23.669 9.378-34.004 6.114-10.3343 14.892-18.9152 25.457-24.8836 10.565-5.9685 22.545-9.115 34.742-9.1247zm0-16.8777c-13.673-.0083-27.154 3.1447-39.348 9.2024-12.193 6.0576-22.753 14.8488-30.821 25.6579-8.067 10.8097-13.415 23.3307-15.607 36.5457-2.192 13.216-1.166 26.751 2.993 39.505-8.061 6.293-13.332 15.389-14.716 25.392-1.383 10.004 1.227 20.145 7.288 28.311s15.106 13.728 25.25 15.528c10.144 1.799 20.607-.302 29.208-5.867 4.645 4.719 10.213 8.473 16.373 11.037 6.16 2.565 12.785 3.886 19.478 3.886 6.694 0 13.318-1.321 19.478-3.886 6.16-2.564 11.729-6.318 16.373-11.037 8.605 5.243 18.92 7.095 28.865 5.184 9.945-1.912 18.78-7.446 24.722-15.485s8.549-17.986 7.296-27.834c-1.254-9.848-6.275-18.864-14.05-25.229 4.16-12.754 5.185-26.289 2.993-39.505-2.192-13.215-7.539-25.736-15.607-36.5457-8.068-10.8091-18.628-19.6003-30.821-25.6579-12.193-6.0577-25.675-9.2107-39.347-9.2024z" fill="#fff"/><path d="M282.06 246.019c-6.78-.015-13.485-1.393-19.699-4.051-.911.724-1.871 1.375-2.831 2.05l1.305 1.254-9.603 9.403-4.112-4.027c-1.699.651-3.423 1.23-5.196 1.736l5.811 5.691-9.578 9.403-9.652-9.403 3.816-3.738c-2.45.306-4.917.468-7.386.483-2.396-.006-4.79-.159-7.166-.458l3.792 3.713-9.603 9.403-9.603-9.403 5.762-5.642c-1.753-.492-3.479-1.071-5.171-1.736l-4.136 3.978-9.702-9.403 1.207-1.182c-1.01-.699-1.995-1.374-2.955-2.122-6.214 2.658-12.918 4.036-19.698 4.051h-1.478c-.187 1.314-.052 2.653.394 3.906l50.182 137.722c.055.165.12.326.197.483.067.167.149.329.246.482.172.337.369.651.566.964l.222.314c.303.397.641.768 1.009 1.109l.247.193.96.723.443.241c.341.185.695.346 1.059.482h.271l.985.241h.394c.912.161 1.845.161 2.757 0h.419l.96-.241h.419c.354-.141.699-.302 1.034-.482l.443-.265c.346-.198.668-.432.961-.699l.27-.193c.362-.347.7-.717 1.01-1.109l.197-.314c.22-.307.418-.629.591-.964l.443-.965 50.28-137.794c.458-1.251.593-2.592.394-3.906-.492 0-.862.072-1.477.072zm-34.472 37.686l-9.603 9.403-9.48-9.403 9.578-9.404 9.505 9.404zm-32.232 12.803l9.603-9.404 9.603 9.404-9.603 9.403-9.603-9.403zm19.206 25.63l-9.603 9.403-9.603-9.403 9.603-9.404 9.603 9.404zm-9.603-60.64l9.603 9.404-9.603 9.331-9.603-9.404 9.603-9.331zm-3.472 22.207l-9.603 9.403-9.603-9.403 9.603-9.404 9.603 9.404zm-36.713-34.093l.936-.917 9.603 9.38-5.491 5.28-5.048-13.743zm6.796 18.879l7.141-6.993 9.578 9.404-9.479 9.331-4.408-4.316-2.832-7.426zm6.969 18.975l.271-.265 9.578 9.403-4.802 4.822-5.047-13.96zm10.267 28.33l-3.496-9.644 6.476-6.317 9.603 9.403-9.505 9.572-3.078-3.014zm8.446 23.195l-4.604-12.586 8.741 8.536-4.137 4.05zm7.51 20.639l-5.688-15.624 5.787-5.666 5.638 5.522-5.737 15.768zm7.584-20.783l-3.841-3.906 8.396-8.246-4.555 12.152zm8.47-22.737l-2.782 2.7-9.529-9.499 9.578-9.38 6.328 6.173-3.595 10.006zm5.467-15.021l-4.654-4.581 9.603-9.404v.121l-4.949 13.864zm9.036-24.811l-4.186 3.955-9.603-9.404 9.603-9.403 6.919 6.92-2.733 7.932zm4.629-12.923l-5.343-5.256 9.603-9.404.788.772-5.048 13.888z" fill="#fff"/></svg>